<svg width="150" height="209" viewBox="0 0 150 209" fill="none" xmlns="http://www.w3.org/2000/svg">
<path d="M108.874 204.446C111.859 207.37 115.871 209 120.079 209C124.239 209 128.349 207.322 131.285 204.446L219.216 118.306C232.574 105.219 239.914 87.8184 239.963 69.3631C239.963 50.8599 232.623 33.4592 219.265 20.3727C205.906 7.28624 188.193 0.095871 169.305 0.095871C150.76 0.095871 133.291 7.04656 120.03 19.7016C106.721 6.99863 89.2032 0 70.609 0C51.7702 0 34.0567 7.19037 20.6983 20.2289C7.33981 33.3154 0 50.7161 0 69.2193C0 87.6745 7.38875 105.075 20.7472 118.162L108.874 204.446ZM29.2125 28.5697C40.2711 17.7362 54.9997 11.7443 70.6579 11.7443C86.3162 11.7443 101.094 17.7362 112.201 28.6177L115.822 32.1649C116.948 33.2674 118.465 33.8906 120.079 33.8906C121.645 33.8906 123.211 33.2674 124.336 32.1649L127.86 28.7135C138.967 17.8321 153.696 11.8401 169.403 11.8401C185.061 11.8401 199.79 17.8321 210.848 28.6656C221.956 39.547 228.024 53.9757 228.024 69.3151C228.024 84.6546 221.907 99.0833 210.799 109.965L122.82 196.153C121.401 197.543 118.807 197.543 117.339 196.153L29.2614 109.869C18.1538 98.9874 12.0373 84.5587 12.0373 69.2193C12.0373 53.8798 18.1538 39.4511 29.2125 28.5697Z" fill="white" fill-opacity="0.2"/>
</svg>
