<svg width="150" height="209" fill="none" xmlns="http://www.w3.org/2000/svg"><path d="M108.874 204.446A15.98 15.98 0 0 0 120.079 209c4.16 0 8.27-1.678 11.206-4.554l87.931-86.14c13.358-13.087 20.698-30.488 20.747-48.943 0-18.503-7.34-35.904-20.698-48.99C205.906 7.286 188.193.096 169.305.096c-18.545 0-36.014 6.95-49.275 19.606C106.721 6.999 89.203 0 70.609 0 51.77 0 34.057 7.19 20.699 20.229 7.338 33.315 0 50.716 0 69.219c0 18.456 7.389 35.856 20.747 48.943l88.127 86.284zM29.213 28.57C40.27 17.736 55 11.744 70.657 11.744c15.658 0 30.436 5.992 41.543 16.874l3.621 3.547a6.062 6.062 0 0 0 4.257 1.726 6.146 6.146 0 0 0 4.257-1.726l3.524-3.451c11.107-10.882 25.836-16.874 41.543-16.874 15.658 0 30.387 5.992 41.445 16.826 11.108 10.881 17.176 25.31 17.176 40.65 0 15.339-6.117 29.767-17.225 40.649l-87.979 86.188c-1.419 1.39-4.013 1.39-5.481 0L29.26 109.869c-11.107-10.882-17.224-25.31-17.224-40.65s6.117-29.768 17.175-40.65z" fill="#fff" fill-opacity=".2"/></svg>